<svg id="Capa_1" enable-background="new 0 0 512 512" height="512" viewBox="0 0 512 512" width="512" xmlns="http://www.w3.org/2000/svg" xmlns:xlink="http://www.w3.org/1999/xlink"><linearGradient id="SVGID_1_" gradientUnits="userSpaceOnUse" x1="15.63" x2="496.37" y1="256" y2="256"><stop offset="0" stop-color="#d2deff" stop-opacity="0"/><stop offset="1" stop-color="#b7c5ff"/></linearGradient><g><g><g><path d="m20.722 179.563c26.255 85.007 107.775 89.005 182.131 93.553 244.867 14.978-63.002 218.186 146.697 238.304 77.136 7.4 157.787-56.956 145.589-140.291-11.107-75.879-121.152-121.073-121.207-191.979-.043-55.945 103.86-96.409 36.272-156.553-60.248-53.612-442.87-15.888-389.482 156.966z" fill="url(#SVGID_1_)"/></g><g><g fill="#6583fe"><path d="m82 197.901c-1.279 0-2.56-.488-3.535-1.464l-11-11c-1.953-1.953-1.953-5.119 0-7.071l11-11c1.951-1.952 5.119-1.952 7.07 0l11 11c1.953 1.953 1.953 5.119 0 7.071l-11 11c-.975.976-2.256 1.464-3.535 1.464zm-3.929-16 3.929 3.929 3.929-3.929-3.929-3.928z"/><path d="m439 214.047c-1.326 0-2.598-.527-3.535-1.464l-11-11.001c-.938-.938-1.465-2.209-1.465-3.536 0-1.326.526-2.598 1.465-3.536l11-10.999c1.951-1.952 5.119-1.952 7.07 0l11 11c1.953 1.953 1.953 5.119 0 7.071l-11 11c-.937.938-2.209 1.465-3.535 1.465zm-3.929-16.001 3.929 3.929 3.929-3.929-3.929-3.928z"/><path d="m71 324.363c-2.762 0-5-2.239-5-5 0-3.309-2.691-6-6-6-2.762 0-5-2.239-5-5s2.238-5 5-5c3.309 0 6-2.691 6-6 0-2.761 2.238-5 5-5s5 2.239 5 5c0 3.309 2.691 6 6 6 2.762 0 5 2.239 5 5s-2.238 5-5 5c-3.309 0-6 2.691-6 6 0 2.762-2.238 5-5 5z"/><path d="m455 443.787c-2.762 0-5-2.239-5-5 0-3.309-2.691-6-6-6-2.762 0-5-2.239-5-5s2.238-5 5-5c3.309 0 6-2.691 6-6 0-2.761 2.238-5 5-5s5 2.239 5 5c0 3.309 2.691 6 6 6 2.762 0 5 2.239 5 5s-2.238 5-5 5c-3.309 0-6 2.691-6 6 0 2.761-2.238 5-5 5z"/><path d="m423.34 163.061c-2.762 0-5-2.239-5-5 0-3.309-2.691-6-6-6-2.762 0-5-2.239-5-5s2.238-5 5-5c3.309 0 6-2.691 6-6 0-2.761 2.238-5 5-5s5 2.239 5 5c0 3.309 2.691 6 6 6 2.762 0 5 2.239 5 5s-2.238 5-5 5c-3.309 0-6 2.691-6 6 0 2.762-2.238 5-5 5z"/></g><g><path d="m386.53 88.415v377.92c0 16.57-13.43 30-30 30h-201.06c-16.57 0-30-13.43-30-30v-377.92c0-16.57 13.43-30 30-30h201.06c16.57 0 30 13.43 30 30z" fill="#2626bc" opacity=".1"/><path d="m386.53 64.415v377.92c0 16.57-13.43 30-30 30h-201.06c-16.57 0-30-13.43-30-30v-377.92c0-16.57 13.43-30 30-30h201.06c16.57 0 30 13.43 30 30z" fill="#fff"/><path d="m311.593 57.355 7.157-22.939h-125.5l7.157 22.939c1.303 4.177 5.171 7.022 9.546 7.022h92.093c4.376-.001 8.244-2.845 9.547-7.022z" fill="#6583fe"/><g><g><ellipse cx="187.971" cy="159.481" fill="#6583fe" rx="38.565" ry="38.565" transform="matrix(.707 -.707 .707 .707 -57.715 179.626)"/><path d="m204.584 153.675c0-9.161-7.453-16.613-16.613-16.613-9.161 0-16.613 7.453-16.613 16.613 0 4.518 1.818 8.615 4.755 11.613-2.936 2.998-4.755 7.095-4.755 11.613 0 2.761 2.239 5 5 5s5-2.239 5-5c0-3.646 2.967-6.613 6.613-6.613s6.613 2.967 6.613 6.613c0 2.761 2.239 5 5 5s5-2.239 5-5c0-4.518-1.818-8.615-4.755-11.613 2.937-2.998 4.755-7.095 4.755-11.613zm-16.613-6.614c3.646 0 6.613 2.967 6.613 6.613s-2.967 6.613-6.613 6.613-6.613-2.967-6.613-6.613 2.966-6.613 6.613-6.613z" fill="#2626bc"/></g></g><g><path d="m309.26 437.787h-106.52c-2.762 0-5-2.239-5-5s2.238-5 5-5h106.52c2.762 0 5 2.239 5 5s-2.239 5-5 5z" fill="#2626bc"/></g><g><path d="m357.595 105.12h-76.52c-2.762 0-5-2.239-5-5s2.238-5 5-5h76.52c2.762 0 5 2.239 5 5s-2.238 5-5 5z" fill="#2626bc"/></g><g><path d="m179.833 62.746h-19c-2.761 0-5-2.239-5-5v-4.981c0-2.761 2.239-5 5-5h19c2.762 0 5 2.239 5 5v4.981c0 2.761-2.238 5-5 5z" fill="#2626bc"/><g><g><path d="m335.917 62.005c-2.761 0-5-2.239-5-5v-3.5c0-2.761 2.239-5 5-5s5 2.239 5 5v3.5c0 2.762-2.239 5-5 5z" fill="#2626bc"/></g><g><path d="m351.167 62.005c-2.761 0-5-2.239-5-5v-3.5c0-2.761 2.239-5 5-5s5 2.239 5 5v3.5c0 2.762-2.239 5-5 5z" fill="#2626bc"/></g></g></g><g><g><path d="m357.595 179.82h-106.52c-2.762 0-5-2.239-5-5s2.238-5 5-5h106.519c2.762 0 5 2.239 5 5 .001 2.761-2.237 5-4.999 5z" fill="#2626bc"/></g><g><g><path d="m251.075 160.561c-2.761 0-5-2.239-5-5v-3.5c0-2.761 2.239-5 5-5s5 2.239 5 5v3.5c0 2.762-2.238 5-5 5z" fill="#2626bc"/></g><g><path d="m266.325 160.561c-2.761 0-5-2.239-5-5v-3.5c0-2.761 2.239-5 5-5s5 2.239 5 5v3.5c0 2.762-2.238 5-5 5z" fill="#2626bc"/></g></g><g><g><path d="m296.825 160.561c-2.761 0-5-2.239-5-5v-3.5c0-2.761 2.239-5 5-5s5 2.239 5 5v3.5c0 2.762-2.238 5-5 5z" fill="#2626bc"/></g></g><g><g><path d="m312.075 160.561c-2.761 0-5-2.239-5-5v-3.5c0-2.761 2.239-5 5-5s5 2.239 5 5v3.5c0 2.762-2.238 5-5 5z" fill="#2626bc"/></g><g><path d="m327.325 160.561c-2.761 0-5-2.239-5-5v-3.5c0-2.761 2.239-5 5-5s5 2.239 5 5v3.5c0 2.762-2.238 5-5 5z" fill="#2626bc"/></g></g><g><g><path d="m342.575 160.561c-2.761 0-5-2.239-5-5v-3.5c0-2.761 2.239-5 5-5s5 2.239 5 5v3.5c0 2.762-2.238 5-5 5z" fill="#2626bc"/></g><g><path d="m357.825 160.561c-2.761 0-5-2.239-5-5v-3.5c0-2.761 2.239-5 5-5s5 2.239 5 5v3.5c0 2.762-2.238 5-5 5z" fill="#2626bc"/></g></g></g><g><g><ellipse cx="187.971" cy="253.205" fill="#6583fe" rx="38.565" ry="38.565" transform="matrix(.707 -.707 .707 .707 -123.988 207.077)"/><path d="m204.584 247.398c0-9.161-7.453-16.613-16.613-16.613-9.161 0-16.613 7.453-16.613 16.613 0 4.518 1.818 8.615 4.755 11.613-2.936 2.998-4.755 7.095-4.755 11.613 0 2.761 2.239 5 5 5s5-2.239 5-5c0-3.646 2.967-6.613 6.613-6.613s6.613 2.967 6.613 6.613c0 2.761 2.239 5 5 5s5-2.239 5-5c0-4.518-1.818-8.615-4.755-11.613 2.937-2.997 4.755-7.094 4.755-11.613zm-16.613-6.613c3.646 0 6.613 2.967 6.613 6.613s-2.967 6.613-6.613 6.613-6.613-2.967-6.613-6.613 2.966-6.613 6.613-6.613z" fill="#2626bc"/></g></g><g><g><path d="m357.595 273.544h-106.52c-2.762 0-5-2.239-5-5s2.238-5 5-5h106.519c2.762 0 5 2.239 5 5 .001 2.761-2.237 5-4.999 5z" fill="#2626bc"/></g><g><g><path d="m251.075 254.285c-2.761 0-5-2.239-5-5v-3.5c0-2.761 2.239-5 5-5s5 2.239 5 5v3.5c0 2.761-2.238 5-5 5z" fill="#2626bc"/></g><g><path d="m266.325 254.285c-2.761 0-5-2.239-5-5v-3.5c0-2.761 2.239-5 5-5s5 2.239 5 5v3.5c0 2.761-2.238 5-5 5z" fill="#2626bc"/></g></g><g><g><path d="m296.825 254.285c-2.761 0-5-2.239-5-5v-3.5c0-2.761 2.239-5 5-5s5 2.239 5 5v3.5c0 2.761-2.238 5-5 5z" fill="#2626bc"/></g></g><g><g><path d="m312.075 254.285c-2.761 0-5-2.239-5-5v-3.5c0-2.761 2.239-5 5-5s5 2.239 5 5v3.5c0 2.761-2.238 5-5 5z" fill="#2626bc"/></g><g><path d="m327.325 254.285c-2.761 0-5-2.239-5-5v-3.5c0-2.761 2.239-5 5-5s5 2.239 5 5v3.5c0 2.761-2.238 5-5 5z" fill="#2626bc"/></g></g><g><g><path d="m342.575 254.285c-2.761 0-5-2.239-5-5v-3.5c0-2.761 2.239-5 5-5s5 2.239 5 5v3.5c0 2.761-2.238 5-5 5z" fill="#2626bc"/></g><g><path d="m357.825 254.285c-2.761 0-5-2.239-5-5v-3.5c0-2.761 2.239-5 5-5s5 2.239 5 5v3.5c0 2.761-2.238 5-5 5z" fill="#2626bc"/></g></g></g><g><g><ellipse cx="187.971" cy="346.929" fill="#6583fe" rx="38.565" ry="38.565" transform="matrix(.23 -.973 .973 .23 -192.864 450.163)"/><path d="m204.584 341.122c0-9.161-7.453-16.613-16.613-16.613-9.161 0-16.613 7.453-16.613 16.613 0 4.518 1.818 8.615 4.755 11.613-2.936 2.998-4.755 7.095-4.755 11.613 0 2.761 2.239 5 5 5s5-2.239 5-5c0-3.646 2.967-6.613 6.613-6.613s6.613 2.967 6.613 6.613c0 2.761 2.239 5 5 5s5-2.239 5-5c0-4.518-1.818-8.615-4.755-11.613 2.937-2.998 4.755-7.095 4.755-11.613zm-16.613-6.613c3.646 0 6.613 2.967 6.613 6.613s-2.967 6.613-6.613 6.613-6.613-2.967-6.613-6.613c-.001-3.646 2.966-6.613 6.613-6.613z" fill="#2626bc"/></g></g><g><g><path d="m357.595 367.267h-106.52c-2.762 0-5-2.239-5-5s2.238-5 5-5h106.519c2.762 0 5 2.239 5 5s-2.237 5-4.999 5z" fill="#2626bc"/></g><g><g><path d="m251.075 348.009c-2.761 0-5-2.239-5-5v-3.5c0-2.761 2.239-5 5-5s5 2.239 5 5v3.5c0 2.761-2.238 5-5 5z" fill="#2626bc"/></g><g><path d="m266.325 348.009c-2.761 0-5-2.239-5-5v-3.5c0-2.761 2.239-5 5-5s5 2.239 5 5v3.5c0 2.761-2.238 5-5 5z" fill="#2626bc"/></g></g><g><g><path d="m296.825 348.009c-2.761 0-5-2.239-5-5v-3.5c0-2.761 2.239-5 5-5s5 2.239 5 5v3.5c0 2.761-2.238 5-5 5z" fill="#2626bc"/></g></g><g><g><path d="m312.075 348.009c-2.761 0-5-2.239-5-5v-3.5c0-2.761 2.239-5 5-5s5 2.239 5 5v3.5c0 2.761-2.238 5-5 5z" fill="#2626bc"/></g><g><path d="m327.325 348.009c-2.761 0-5-2.239-5-5v-3.5c0-2.761 2.239-5 5-5s5 2.239 5 5v3.5c0 2.761-2.238 5-5 5z" fill="#2626bc"/></g></g><g><g><path d="m342.575 348.009c-2.761 0-5-2.239-5-5v-3.5c0-2.761 2.239-5 5-5s5 2.239 5 5v3.5c0 2.761-2.238 5-5 5z" fill="#2626bc"/></g><g><path d="m357.825 348.009c-2.761 0-5-2.239-5-5v-3.5c0-2.761 2.239-5 5-5s5 2.239 5 5v3.5c0 2.761-2.238 5-5 5z" fill="#2626bc"/></g></g></g><g><g><path d="m256 412.944c-1.279 0-2.56-.488-3.535-1.464l-5.834-5.833c-1.953-1.953-1.953-5.118-.001-7.071 1.953-1.953 5.118-1.953 7.071 0l2.299 2.298 2.299-2.298c1.951-1.952 5.118-1.953 7.071 0 1.952 1.953 1.952 5.118-.001 7.071l-5.834 5.833c-.975.976-2.256 1.464-3.535 1.464z" fill="#2626bc"/></g></g></g></g></g><g fill="#2626bc"><path d="m155.469 477.335h201.063c19.299 0 35-15.701 35-35v-223.171c0-2.761-2.238-5-5-5s-5 2.239-5 5v223.172c0 13.785-11.215 25-25 25h-201.063c-13.785 0-25-11.215-25-25v-377.922c0-13.785 11.215-25 25-25h74.034c2.762 0 5-2.239 5-5s-2.238-5-5-5h-74.034c-19.299 0-35 15.701-35 35v377.922c0 19.298 15.701 34.999 35 34.999z"/><path d="m263.164 39.414h93.367c13.785 0 25 11.215 25 25v121.089c0 2.761 2.238 5 5 5s5-2.239 5-5v-121.089c0-19.299-15.701-35-35-35h-93.367c-2.762 0-5 2.239-5 5s2.238 5 5 5z"/></g></g></svg>