<?xml version="1.0"?>
<svg xmlns="http://www.w3.org/2000/svg" xmlns:xlink="http://www.w3.org/1999/xlink" xmlns:svgjs="http://svgjs.com/svgjs" version="1.1" width="512" height="512" x="0" y="0" viewBox="0 0 60 60" style="enable-background:new 0 0 512 512" xml:space="preserve" class=""><g><g xmlns="http://www.w3.org/2000/svg" id="Page-1" fill="none" fill-rule="evenodd"><g id="113---Mailbox" fill-rule="nonzero"><path id="Shape" d="m30 59h25c2.209139 0 4-1.790861 4-4v-9.628c.0002484-.8893796-.2964348-1.7533858-.843-2.455l-11.957-15.373c-.7575692-.9738665-1.9221739-1.5436224-3.156-1.544h-26.088c-1.2338261.0003776-2.3984308.5701335-3.156 1.544l-11.957 15.373c-.54656523.7016142-.84324842 1.5656204-.843 2.455v9.628c0 2.209139 1.790861 4 4 4z" fill="#e8edfc" data-original="#e8edfc" style="" class=""/><path id="Shape" d="m58.157 42.917-11.957-15.373c-.7575692-.9738665-1.9221739-1.5436224-3.156-1.544h-3c1.2338261.0003776 2.3984308.5701335 3.156 1.544l11.957 15.373c.5460884.7018723.8427136 1.5657097.843 2.455v9.628c0 2.209139-1.790861 4-4 4h3c2.209139 0 4-1.790861 4-4v-9.628c-.0002864-.8892903-.2969116-1.7531277-.843-2.455z" fill="#cad9fc" data-original="#cad9fc" style="" class=""/><path id="Shape" d="m55 46-12-16h-26l-12 16h12.764c.7576917.0000257 1.4503118.428219 1.789 1.106l1.894 3.788c.3386882.677781 1.0313083 1.1059743 1.789 1.106h13.528c.7576917-.0000257 1.4503118-.428219 1.789-1.106l1.894-3.788c.3386882-.677781 1.0313083-1.1059743 1.789-1.106z" fill="#6583fe" data-original="#a4c2f7" style="" class=""/><path id="Shape" d="m46 4v14c.0000702.7955351-.3165773 1.5583676-.88 2.12l-.13-.12-10.32-9.12 10.32-9.12c.6442337.56586198 1.0124698 1.38254405 1.01 2.24z" fill="#e8edfc" data-original="#e8edfc" style="" class=""/><path id="Shape" d="m45.12 20.12c-.5616324.5634227-1.3244649.8800702-2.12.88h-26c-.7904856-.0006867-1.5487553-.3133382-2.11-.87l.12-.13 10.32-9.12 2.68 2.37c1.1382134 1.0000294 2.8417866 1.0000294 3.98 0l2.68-2.37 10.32 9.12z" fill="#6583fe" data-original="#a4c2f7" style="" class=""/><path id="Shape" d="m44.99 20-10.32-9.12-1.5 1.326 8.82 7.794.13.12c-.5616324.5634227-1.3244649.8800702-2.12.88h3c.7955351.0000702 1.5583676-.3165773 2.12-.88z" fill="#c0cdff" data-original="#7facfa" style="" class=""/><path id="Shape" d="m25.33 10.88-10.32 9.12-.12.13c-.5704072-.5618484-.8911013-1.3293523-.89-2.13v-14c-.0024698-.85745595.3657663-1.67413802 1.01-2.24z" fill="#e8edfc" data-original="#e8edfc" style="" class=""/><path id="Shape" d="m44.99 1.76-10.32 9.12-2.68 2.37c-1.1382134 1.0000294-2.8417866 1.0000294-3.98 0l-2.68-2.37-10.32-9.12c.5470397-.48986302 1.2556854-.76050156 1.99-.76h26c.7343146-.00050156 1.4429603.27013698 1.99.76z" fill="#e8edfc" data-original="#e8edfc" style="" class=""/><path id="Shape" d="m43 1h-3c.7343146-.00050156 1.4429603.27013698 1.99.76l-10.32 9.12-2.68 2.37c-.1513638.1314139-.3155175.2473265-.49.346 1.1173817.6439897 2.5208175.5048525 3.49-.346l2.68-2.37 10.32-9.12c-.5470397-.48986302-1.2556854-.76050156-1.99-.76z" fill="#cad9fc" data-original="#cad9fc" style="" class=""/><path id="Shape" d="m17 21h3c-1.6568542 0-3-1.3431458-3-3v-14c0-1.65685425 1.3431458-3 3-3h-3c-1.6568542 0-3 1.34314575-3 3v14c0 1.6568542 1.3431458 3 3 3z" fill="#ffffff" data-original="#ffffff" style="" class=""/><path id="Shape" d="m5 59h3c-2.209139 0-4-1.790861-4-4v-9.628c.00028642-.8892903.29691164-1.7531277.843-2.455l11.957-15.373c.7575692-.9738665 1.9221739-1.5436224 3.156-1.544h-3c-1.2338261.0003776-2.3984308.5701335-3.156 1.544l-11.957 15.373c-.54608836.7018723-.84271358 1.5657097-.843 2.455v9.628c0 2.209139 1.790861 4 4 4z" fill="#ffffff" data-original="#ffffff" style="" class=""/><path id="Rectangle-path" d="m7.343 29.702h8v2h-8z" fill="#ffffff" transform="matrix(.614 -.789 .789 .614 -19.855 20.806)" data-original="#ffffff" style="" class=""/><g fill="#428dff"><path id="Shape" d="m12.133 31.316c.2493261-.3190164.2816794-.7568956.0819467-1.1090914-.1997326-.3521958-.5921303-.5491957-.9938926-.4989755-.4017622.0502203-.7335938.337749-.8404865.7282729s.0322508.806966.3524324 1.054794c.4352938.3369274 1.0610358.2587097 1.4-.175z" fill="#2626bc" data-original="#428dff" style="" class=""/><path id="Shape" d="m46.99 26.93c-.9441402-1.2218847-2.4028575-1.9351668-3.947-1.93h-26.086c-1.5441425-.0051668-3.0028598.7081153-3.947 1.93-.2288659.2811241-.2876708.6640928-.1536933 1.0009316s.439755.5747949.7991839.621925c.3594288.0471302.7162183-.1039468.9325094-.3948566.5707373-.7283283 1.4436923-1.1550408 2.369-1.158h26.086c.9253077.0029592 1.7982627.4296717 2.369 1.158l11.956 15.373c.4082754.5269898.6305133 1.174363.632 1.841v9.628c0 1.6568542-1.3431458 3-3 3h-50c-1.65685425 0-3-1.3431458-3-3v-9.628c.00148669-.666637.22372456-1.3140102.632-1.841l7.045-9.057c.32227304-.4361483.23818135-1.0496835-.18955993-1.3830342s-1.04323095-.2650187-1.38744007.1540342l-7.047 9.055c-.68180372.8789766-1.05220937 1.9595902-1.053 3.072v9.628c.00330612 2.7600532 2.23994685 4.9966939 5 5h50c2.7600532-.0033061 4.9966939-2.2399468 5-5v-9.628c-.0011692-1.1123465-.3715341-2.1928411-1.053-3.072z" fill="#2626bc" data-original="#428dff" style="" class=""/><path id="Shape" d="m17.6 29.2c-.2121732-.1591299-.4788704-.2274568-.7414214-.1899495-.2625509.0375073-.4994487.1777763-.6585786.3899495l-12 16c-.22726324.3030176-.26381921.7084296-.09442719 1.0472136.16939201.338784.51565513.5527864.89442719.5527864h12.764c.379067-.0012129.7258235.2132797.894.553l1.895 3.789c.5053354 1.0187641 1.5457972 1.6617331 2.683 1.658h13.528c1.1372028.0037331 2.1776646-.6392359 2.683-1.658l1.895-3.789c.1681765-.3397203.514933-.5542129.894-.553h4.764c.5522847 0 1-.4477153 1-1s-.4477153-1-1-1h-4.764c-1.1372028-.0037331-2.1776646.6392359-2.683 1.658l-1.895 3.789c-.1681765.3397203-.514933.5542129-.894.553h-13.528c-.379067.0012129-.7258235-.2132797-.894-.553l-1.895-3.789c-.5053354-1.0187641-1.5457972-1.6617331-2.683-1.658h-10.764l10.8-14.4c.1591299-.2121732.2274568-.4788704.1899495-.7414214-.0375073-.2625509-.1777763-.4994487-.3899495-.6585786z" fill="#2626bc" data-original="#428dff" style="" class=""/><path id="Shape" d="m42.5 31 11.7 15.6c.3313708.4418278.9581722.5313708 1.4.2s.5313708-.9581722.2-1.4l-12-16c-.1888544-.2518058-.4852427-.4-.8-.4h-20c-.5522847 0-1 .4477153-1 1s.4477153 1 1 1z" fill="#2626bc" data-original="#428dff" style="" class=""/><path id="Shape" d="m17 22h26c2.209139 0 4-1.790861 4-4v-14c-.0009845-1.09868324-.4558692-2.14813881-1.257-2.9-.013-.015-.031-.02-.044-.034-.7332356-.68267971-1.6971621-1.06339316-2.699-1.066h-26c-1.0003172.00237945-1.9628462.3823909-2.695 1.064-.014.014-.032.019-.045.034-.8027443.7518174-1.2587898 1.80216982-1.26 2.902v14c0 2.209139 1.790861 4 4 4zm0-2c-.143316-.0005823-.2861479-.016676-.426-.048l5.887-5.2c.2679492-.2365098.389368-.5980031.3185191-.9483088-.0708489-.3503058-.3232019-.6362041-.662-.75-.3387982-.1137959-.7125699-.038201-.9805191.1983088l-6.037 5.336c-.0629225-.1898038-.0966406-.3880664-.1-.588v-14c-.0003333-.26658762.053063-.53050829.157-.776l12.195 10.776c1.5132028 1.3383365 3.7867972 1.3383365 5.3 0l12.2-10.771c.1001964.24457631.1505147.50670742.148.771v14c-.0033594.1999336-.0370775.3981962-.1.588l-6.039-5.337c-.4142136-.3656125-1.0463875-.3262136-1.412.088s-.3262136 1.0463875.088 1.412l5.887 5.2c-.1391627.0315174-.2813168.0479455-.424.049zm26-18c.064 0 .124.013.187.019l-11.863 10.481c-.7562853.6679898-1.8917147.6679898-2.648 0l-11.863-10.481c.063-.006.123-.019.187-.019z" fill="#2626bc" data-original="#428dff" style="" class=""/></g></g></g></g></svg>
