<svg id="Capa_1" enable-background="new 0 0 512.001 512.001" height="512" viewBox="0 0 512.001 512.001" width="512" xmlns="http://www.w3.org/2000/svg" xmlns:xlink="http://www.w3.org/1999/xlink"><linearGradient id="SVGID_1_" gradientTransform="matrix(1 0 0 -1 -561.6 -8714.989)" gradientUnits="userSpaceOnUse" x1="1098.842" x2="636.841" y1="-9111.217" y2="-8811.216"><stop offset="0" stop-color="#d2dbfc" stop-opacity="0"/><stop offset="1" stop-color="#b8c1fb"/></linearGradient><g><path d="m38.146 134.71c19.974-57.707 57.562-157.818 137.712-129.893 31.204 10.872 41.003 52.164 72.37 57.311 29.626 4.861 54.704-24.255 82.89-29.776 35.014-6.859 72.067 2.317 85.37 36.48 15.916 40.874-30.997 86.737-19.655 124.062 18.708 61.564 87.863-40.471 100.229 58.88 17.304 139.025-136.801 386.519-240.619 182.998-52.643-103.199-107.815-30.825-189.876-82.161-77.922-48.747-53.805-144.567-28.421-217.901z" fill="url(#SVGID_1_)"/><path d="m460.384 155.213c-.957-.922-2.252-1.463-3.667-1.463h-182.179c-1.428 0-2.735.54-3.701 1.46-1.066.98-1.73 2.38-1.73 3.93v35.233c-6.239-2.22-13.042-3.259-20.147-2.806-4.099.261-8.068 1.034-11.853 2.238v-92.105c0-1.42-.611-2.71-1.583-3.61-.892-.84-2.074-1.34-3.387-1.34h-168.07c-1.303 0-2.495.5-3.377 1.34-.982.9-1.583 2.19-1.583 3.61v109.137c0 1.41.595 2.7 1.568 3.593.874.824 2.055 1.32 3.345 1.32h143.627c-3.552 6.102-5.837 13.019-6.462 20.391-.994 11.701 2.106 22.634 8.012 31.546l-.469 1.063h-125.511c-1.87 0-3.58.711-4.84 1.923-1.4 1.292-2.27 3.145-2.27 5.189v156.767c0 2.043.87 3.906 2.27 5.198 1.26 1.202 2.97 1.923 4.84 1.923h240.78c1.87 0 3.57-.721 4.84-1.923 1.4-1.292 2.27-3.155 2.27-5.198v-148.879h125.609c1.415 0 2.71-.541 3.667-1.453 1.056-.982 1.724-2.405 1.724-3.959v-119.186c0-1.554-.667-2.957-1.723-3.939z" fill="#2b2ab5" opacity=".11"/><g fill="#fff"><path d="m480.107 141.152v119.187c0 1.553-.671 2.976-1.732 3.959-.961.912-2.263 1.453-3.684 1.453h-183.177c-1.422 0-2.723-.541-3.684-1.453-1.061-.982-1.722-2.405-1.722-3.959v-119.187c0-1.553.661-2.956 1.722-3.938.961-.922 2.263-1.463 3.684-1.463h183.177c1.422 0 2.723.541 3.684 1.463 1.062.981 1.732 2.384 1.732 3.938z"/><path d="m478.718 137.197-91.691 76.709c-2.006 1.678-4.925 1.678-6.931 0l-91.691-76.709c.961-.902 2.252-1.447 3.672-1.447h182.968c1.421-.001 2.712.545 3.673 1.447z"/><path d="m255.107 83.703v109.094c0 1.421-.611 2.722-1.583 3.622-.892.83-2.074 1.331-3.387 1.331h-168.07c-1.303 0-2.495-.5-3.377-1.331-.982-.9-1.583-2.201-1.583-3.622v-109.094c0-1.421.601-2.712 1.583-3.612.882-.84 2.074-1.341 3.377-1.341h168.07c1.313 0 2.495.5 3.387 1.341.972.9 1.583 2.191 1.583 3.612z"/><path d="m253.274 80.077-84.06 70.325c-1.839 1.538-4.515 1.538-6.354 0l-84.06-70.325c.881-.827 2.065-1.327 3.367-1.327h167.74c1.302 0 2.486.5 3.367 1.327z"/><path d="m349.107 257.862v156.767c0 2.043-.87 3.906-2.27 5.198-1.27 1.202-2.97 1.923-4.84 1.923h-240.78c-1.87 0-3.58-.721-4.84-1.923-1.4-1.292-2.27-3.155-2.27-5.198v-156.767c0-2.043.87-3.896 2.27-5.188 1.26-1.212 2.97-1.923 4.84-1.923h240.78c1.87 0 3.57.711 4.84 1.923 1.4 1.291 2.27 3.144 2.27 5.188z"/><path d="m346.711 253.65-120.67 100.95c-2.64 2.21-6.48 2.21-9.12 0l-120.67-100.95c1.27-1.18 2.97-1.9 4.84-1.9h240.78c1.87 0 3.57.72 4.84 1.9z"/></g><path d="m319.57 226.129c1.925-30.06-22.862-54.848-52.922-52.922-24.34 1.559-44.226 21.004-46.29 45.306-1.001 11.788 2.122 22.803 8.072 31.781l-6.986 15.866c-1.443 3.277 1.896 6.615 5.173 5.173l15.866-6.986c8.978 5.95 19.993 9.073 31.781 8.072 24.302-2.064 43.747-21.95 45.306-46.29z" fill="#6e80f8"/><g fill="#2b2ab5"><circle cx="250.905" cy="222.268" r="5.59"/><circle cx="270.815" cy="222.268" r="5.59"/><circle cx="290.725" cy="222.268" r="5.59"/><path d="m115.579 161.75h-12.622c-2.403 0-4.612-1.609-5.084-3.965-.644-3.214 1.796-6.035 4.896-6.035h12.622c2.403 0 4.612 1.609 5.084 3.965.644 3.214-1.796 6.035-4.896 6.035z"/><path d="m131.289 178.75h-28.332c-2.403 0-4.612-1.609-5.084-3.965-.644-3.214 1.796-6.035 4.896-6.035h28.331c2.403 0 4.612 1.609 5.085 3.965.644 3.214-1.797 6.035-4.896 6.035z"/></g><path d="m137.412 378.75h-12.622c-2.403 0-4.612-1.609-5.084-3.965-.644-3.214 1.796-6.035 4.896-6.035h12.621c2.403 0 4.612 1.609 5.085 3.965.644 3.214-1.797 6.035-4.896 6.035z" fill="#2b2ab5"/><path d="m153.122 395.75h-28.332c-2.403 0-4.612-1.609-5.084-3.965-.644-3.214 1.796-6.035 4.896-6.035h28.331c2.403 0 4.612 1.609 5.085 3.965.644 3.214-1.797 6.035-4.896 6.035z" fill="#2b2ab5"/><path d="m396.781 318.22c-5.557 0-11.113-3.142-13.742-9.433-1.311-3.137-1.416-6.693-.194-9.866 3.01-7.811 10.812-11.554 18.515-9.207.6.183 1.186.419 1.745.703 9.477 4.807 10.811 16.723 4.002 23.531v.001c-2.847 2.847-6.587 4.271-10.326 4.271zm7.071-7.47h.01zm-6.79-11.729c-1.229 0-2.385.479-3.254 1.349-1.795 1.795-1.795 4.715 0 6.51 1.794 1.793 4.714 1.794 6.51-.001 1.794-1.794 1.794-4.714 0-6.509-.871-.87-2.027-1.349-3.256-1.349z" fill="#6e80f8"/><path d="m416.29 361.797c-3.74 0-7.479-1.423-10.326-4.27-5.694-5.694-5.694-14.958 0-20.651 5.694-5.694 14.958-5.695 20.652 0 5.693 5.693 5.693 14.957 0 20.65-2.847 2.847-6.587 4.271-10.326 4.271zm0-19.196c-1.179 0-2.357.449-3.255 1.347-1.794 1.794-1.794 4.714 0 6.509 1.795 1.793 4.715 1.793 6.509 0 1.794-1.795 1.794-4.715 0-6.51-.897-.897-2.076-1.346-3.254-1.346z" fill="#6e80f8"/><path d="m63.782 254.421c-5.194 0-10.39-2.748-13.192-8.242-.288-.565-.528-1.158-.714-1.765-2.355-7.705 1.389-15.515 9.208-18.53 3.072-1.184 6.507-1.145 9.567.07 6.151 2.442 9.733 7.882 9.733 13.871 0 3.9-1.519 7.567-4.278 10.326v-.001.001c-2.845 2.846-6.585 4.27-10.324 4.27zm.071-19.196c-1.179 0-2.357.449-3.254 1.346-.87.87-1.349 2.025-1.349 3.255s.479 2.385 1.348 3.254c1.795 1.795 4.715 1.794 6.509.001v-.001c.869-.869 1.348-2.024 1.348-3.254s-.479-2.385-1.348-3.254c-.897-.898-2.075-1.347-3.254-1.347z" fill="#6e80f8"/><path d="m322.169 72.75h-3.062v-3.062c0-2.403-1.609-4.612-3.965-5.084-3.214-.644-6.035 1.796-6.035 4.896v3.25h-3.062c-2.404 0-4.613 1.61-5.085 3.968-.642 3.214 1.798 6.032 4.897 6.032h3.25v3.062c0 2.403 1.609 4.612 3.965 5.084 3.214.644 6.035-1.796 6.035-4.896v-3.25h3.25c3.098 0 5.539-2.818 4.897-6.032-.471-2.357-2.681-3.968-5.085-3.968z" fill="#6e80f8"/><path d="m391.169 402.75h-3.062v-3.062c0-2.403-1.609-4.612-3.965-5.084-3.214-.644-6.035 1.796-6.035 4.896v3.25h-3.062c-2.404 0-4.613 1.61-5.085 3.968-.642 3.214 1.798 6.032 4.897 6.032h3.25v3.062c0 2.403 1.609 4.612 3.965 5.084 3.214.644 6.035-1.796 6.035-4.896v-3.25h3.25c3.098 0 5.539-2.818 4.897-6.032-.471-2.358-2.681-3.968-5.085-3.968z" fill="#6e80f8"/><path d="m481.824 132.596c-1.924-1.835-4.459-2.846-7.137-2.846h-182.09c-2.698 0-5.251 1.003-7.128 2.768-2.137 1.945-3.361 4.702-3.361 7.566v28.442c-5.028-1.09-10.231-1.512-15.476-1.179-2.212.139-4.386.423-6.524.818v-84.527c0-2.74-1.172-5.379-3.16-7.19-1.854-1.74-4.294-2.698-6.872-2.698h-168.016c-2.56 0-4.981.965-6.764 2.663-2.027 1.873-3.189 4.528-3.189 7.286v49.77c0 2.403 1.609 4.612 3.965 5.084 3.214.644 6.035-1.796 6.035-4.896l-.042-44.164 77.644 64.819c1.854 1.548 4.127 2.321 6.399 2.321 2.273 0 4.546-.773 6.399-2.321l77.601-64.783v82.178c-10.595 4.203-19.624 11.626-25.82 21.043l-142.179.046v-30.364c0-2.407-1.614-4.622-3.976-5.087-3.21-.631-6.025 1.785-6.025 4.854v30.688c0 2.735 1.163 5.368 3.142 7.179 1.841 1.73 4.26 2.684 6.812 2.684h136.768c-1.871 4.717-3.099 9.745-3.548 14.982-.841 9.81.919 19.362 5.1 28.018h-119.147c-3.119 0-6.068 1.174-8.244 3.25-2.469 2.281-3.884 5.516-3.884 8.873v156.748c0 3.361 1.416 6.598 3.836 8.833 2.241 2.125 5.185 3.296 8.293 3.296h240.632c3.134 0 6.105-1.171 8.318-3.25 2.493-2.281 3.921-5.518 3.921-8.879v-156.747c0-3.358-1.43-6.592-3.864-8.819-2.256-2.131-5.231-3.305-8.376-3.305h-22.797c2.971-6.13 4.832-12.865 5.289-19.947 1.021-15.787-4.847-31.232-16.099-42.378-4.981-4.934-10.816-8.818-17.152-11.533v-26.158l85.319 71.288c1.936 1.618 4.308 2.426 6.682 2.426 2.373 0 4.746-.809 6.681-2.426l85.317-71.287v113.613c0 .107-.041.199-.167.317-.089.085-.196.085-.231.085h-97.908c-2.403 0-4.612 1.61-5.084 3.966-.644 3.215 1.8 6.034 4.903 6.034h98.07c2.669 0 5.199-1.007 7.079-2.791 2.122-1.961 3.34-4.742 3.34-7.632v-119.158c-.003-2.888-1.221-5.668-3.285-7.573zm-315.755 13.977-75.093-62.823 150.183-.045zm177.324 269.632c-.37.352-.864.545-1.391.545h-240.785c-.68 0-1.135-.296-1.445-.591-.248-.229-.665-.731-.665-1.52v-152.898l114.732 95.987c2.251 1.883 5.01 2.824 7.769 2.824s5.518-.941 7.769-2.824l114.73-95.985v152.897c0 .788-.417 1.291-.714 1.565zm-8.174-159.455-112.388 94.024c-.784.656-1.921.656-2.704 0l-112.388-94.024h112.553l-3.312 7.521c-1.356 3.079-1.066 6.725 1.025 9.361 2.591 3.266 6.902 4.302 10.625 2.663l13.441-5.919c8.46 5.021 17.947 7.616 27.799 7.616 1.596 0 3.202-.068 4.815-.205 15.56-1.321 29.322-9.311 38.448-21.037zm-20.639-30.94c-1.401 21.878-18.916 39.774-40.74 41.627-10.23.867-20.119-1.642-28.597-7.258-.832-.551-1.794-.832-2.762-.832-.684 0-1.37.14-2.015.424l-13.332 5.87 5.871-13.332c.686-1.558.532-3.357-.408-4.776-5.617-8.476-8.126-18.364-7.258-28.597 1.853-21.824 19.749-39.338 41.627-40.738 12.887-.84 25.504 3.915 34.6 13.012 9.097 9.095 13.84 21.706 13.014 34.6zm69.238-15.735c-.148.126-.365.125-.513 0l-82.865-69.325h166.244z" fill="#2b2ab5"/><path d="m325.415 371.439c0-9.16-7.453-16.612-16.613-16.612s-16.613 7.452-16.613 16.612c0 4.518 1.818 8.615 4.755 11.613-2.936 2.998-4.755 7.095-4.755 11.613 0 2.762 2.239 5 5 5s5-2.238 5-5c0-3.646 2.967-6.613 6.613-6.613s6.613 2.967 6.613 6.613c0 2.762 2.239 5 5 5s5-2.238 5-5c0-4.518-1.818-8.615-4.755-11.613 2.937-2.997 4.755-7.095 4.755-11.613zm-16.613-6.612c3.646 0 6.613 2.966 6.613 6.612s-2.967 6.613-6.613 6.613-6.613-2.967-6.613-6.613 2.966-6.612 6.613-6.612z" fill="#2b2ab5"/><path d="m460.879 217.728c0-8.408-6.841-15.248-15.249-15.248s-15.249 6.84-15.249 15.248c0 3.948 1.521 7.538 3.991 10.249-2.47 2.711-3.991 6.301-3.991 10.249 0 2.762 2.239 5 5 5s5-2.238 5-5c0-2.895 2.354-5.249 5.249-5.249s5.249 2.354 5.249 5.249c0 2.762 2.239 5 5 5s5-2.238 5-5c0-3.948-1.521-7.538-3.991-10.249 2.47-2.711 3.991-6.302 3.991-10.249zm-15.249-5.249c2.895 0 5.249 2.354 5.249 5.248 0 2.895-2.354 5.249-5.249 5.249-2.894 0-5.249-2.354-5.249-5.249 0-2.893 2.355-5.248 5.249-5.248z" fill="#2b2ab5"/></g></svg>